HIERARCHY
ROOT root
{
	OFFSET 0.000000 0.000000 0.000000
	CHANNELS 6 Xposition Yposition Zposition Zrotation Yrotation Xrotation
	JOINT lhip
	{
		OFFSET 0.058581 -0.082280 -0.017664
		CHANNELS 3 Zrotation Yrotation Xrotation
		JOINT lknee
		{
			OFFSET 0.043451 -0.386469 0.008037
			CHANNELS 3 Zrotation Yrotation Xrotation
			JOINT lankle
			{
				OFFSET -0.014790 -0.426874 -0.037428
				CHANNELS 3 Zrotation Yrotation Xrotation
				JOINT ltoe
				{
					OFFSET 0.041054 -0.060286 0.122042
					CHANNELS 3 Zrotation Yrotation Xrotation
					End Site
					{
						OFFSET 0.000000 0.000000 0.000000
					}
				}
			}
		}
	}
	JOINT rhip
	{
		OFFSET -0.060310 -0.090513 -0.013543
		CHANNELS 3 Zrotation Yrotation Xrotation
		JOINT rknee
		{
			OFFSET -0.043257 -0.383688 -0.004843
			CHANNELS 3 Zrotation Yrotation Xrotation
			JOINT rankle
			{
				OFFSET 0.019056 -0.420046 -0.034562
				CHANNELS 3 Zrotation Yrotation Xrotation
				JOINT rtoe
				{
					OFFSET -0.034840 -0.062106 0.130323
					CHANNELS 3 Zrotation Yrotation Xrotation
					End Site
					{
						OFFSET 0.000000 0.000000 0.000000
					}
				}
			}
		}
	}
	JOINT lowerback
	{
		OFFSET 0.004439 0.124404 -0.038385
		CHANNELS 3 Zrotation Yrotation Xrotation
		JOINT upperback
		{
			OFFSET 0.004488 0.137956 0.026820
			CHANNELS 3 Zrotation Yrotation Xrotation
			JOINT chest
			{
				OFFSET -0.002265 0.056032 0.002855
				CHANNELS 3 Zrotation Yrotation Xrotation
				JOINT lowerneck
				{
					OFFSET -0.013390 0.211636 -0.033468
					CHANNELS 3 Zrotation Yrotation Xrotation
					JOINT upperneck
					{
						OFFSET 0.010113 0.088937 0.050410
						CHANNELS 3 Zrotation Yrotation Xrotation
						End Site
						{
							OFFSET 0.000000 0.000000 0.000000
						}
					}
				}
				JOINT lclavicle
				{
					OFFSET 0.071702 0.114000 -0.018898
					CHANNELS 3 Zrotation Yrotation Xrotation
					JOINT lshoulder
					{
						OFFSET 0.122921 0.045205 -0.019046
						CHANNELS 3 Zrotation Yrotation Xrotation
						JOINT lelbow
						{
							OFFSET 0.255332 -0.015649 -0.022946
							CHANNELS 3 Zrotation Yrotation Xrotation
							JOINT lwrist
							{
								OFFSET 0.265709 0.012698 -0.007375
								CHANNELS 3 Zrotation Yrotation Xrotation
								End Site
								{
									OFFSET 0.000000 0.000000 0.000000
								}
							}
						}
					}
				}
				JOINT rclavicle
				{
					OFFSET -0.082954 0.112472 -0.023707
					CHANNELS 3 Zrotation Yrotation Xrotation
					JOINT rshoulder
					{
						OFFSET -0.113228 0.046853 -0.008472
						CHANNELS 3 Zrotation Yrotation Xrotation
						JOINT relbow
						{
							OFFSET -0.260127 -0.014369 -0.031269
							CHANNELS 3 Zrotation Yrotation Xrotation
							JOINT rwrist
							{
								OFFSET -0.269108 0.006794 -0.006027
								CHANNELS 3 Zrotation Yrotation Xrotation
								End Site
								{
									OFFSET 0.000000 0.000000 0.000000
								}
							}
						}
					}
				}
			}
		}
	}
}
MOTION
Frames: 8
Frame Time: 0.033333
2.029453 0.322862 0.841424 -87.598106 3.381592 71.352095 4.659766 7.135486 2.468679 -9.174619 -4.659911 60.112370 8.672490 19.312648 -48.055735 0.000000 -0.000000 0.000000 -8.759373 -1.765725 -29.349157 -2.308830 -7.837745 92.867248 -0.211730 -16.740591 -13.651949 0.000000 -0.000000 0.000000 0.854194 -5.662025 31.036449 3.566170 0.305396 -5.084827 1.485180 -4.607666 5.407945 3.630338 -0.168861 -6.226208 -2.366735 -3.235648 9.941976 -25.274077 -2.273962 2.131995 -52.174499 -7.005836 3.989784 7.051868 -35.722019 12.926165 -5.496197 2.436552 1.078132 26.688377 -1.799645 -3.606604 49.225656 -4.956618 11.758903 -9.567289 37.723502 5.383963 -12.649352 -0.179545 8.064192 
2.020100 0.320899 0.843429 -88.043951 3.926979 70.385836 4.391178 7.030107 4.596576 -8.866844 -6.012007 59.574854 7.908909 20.503339 -48.079671 0.000000 -0.000000 0.000000 -8.112897 -0.784156 -32.800555 -1.758300 -9.039737 91.219440 0.668077 -15.203709 -15.575576 0.000000 -0.000000 0.000000 0.759508 -7.411708 32.255825 3.596490 -0.430844 -4.857359 1.427649 -4.879020 5.066373 3.342911 1.199053 -5.750504 -1.999529 -2.205579 8.851812 -25.236537 -2.765124 1.759454 -51.465001 -7.253536 3.944396 7.540584 -35.890550 11.542123 -5.057232 2.590694 0.893061 26.495210 -1.876456 -3.200501 50.014036 -6.052174 11.753213 -9.224056 37.051198 6.036319 -12.877138 -0.528227 7.741169 
2.010233 0.319881 0.844668 -88.495970 4.411855 69.682831 4.481552 6.839599 6.382109 -8.969687 -7.030725 59.192219 6.854657 20.859318 -48.017094 0.000000 -0.000000 0.000000 -7.649232 0.460201 -36.056261 -0.983520 -9.974193 87.828215 2.063505 -13.257569 -17.086052 0.000000 -0.000000 0.000000 0.305232 -8.274167 33.082497 3.973187 -0.524922 -4.456880 1.865508 -5.615653 4.857477 3.507878 2.506192 -5.455309 -1.902087 -1.731321 7.672624 -25.021363 -3.749523 2.007226 -51.543856 -8.905584 4.313315 8.957551 -35.394618 9.181259 -4.992923 2.479567 1.048479 26.160326 -2.694818 -3.409437 50.280740 -7.474920 11.959795 -8.649526 36.484591 7.012392 -12.534144 -1.170593 7.266382 
1.999821 0.319793 0.845893 -88.635459 4.836695 69.248886 4.983484 7.055833 7.851455 -9.284714 -8.106360 59.080612 5.823457 20.404160 -48.237255 0.000000 -0.000000 0.000000 -7.347943 1.397818 -38.896311 -0.679973 -10.409383 83.438111 2.942492 -11.971859 -17.681192 0.000000 -0.000000 0.000000 0.048554 -10.563079 33.999424 3.958422 -1.905737 -4.216199 1.641538 -5.607128 4.254770 2.894906 3.741180 -5.051551 -1.347144 -0.307523 6.813507 -24.982661 -3.687827 1.211431 -50.362721 -9.005574 3.786032 9.215330 -36.131020 8.263894 -5.170992 1.694803 0.490798 25.852016 -2.706987 -2.623966 51.065231 -8.332611 11.827852 -8.242957 35.232491 8.094816 -12.289482 -1.225106 7.416266 
1.988735 0.320238 0.846578 -88.603620 5.186666 69.042969 5.792242 7.279808 9.135276 -9.849340 -8.887060 58.978669 5.028303 19.582467 -48.472467 0.000000 -0.000000 0.000000 -7.264411 2.143872 -41.347493 -0.455224 -10.597530 78.644928 3.732753 -11.977895 -17.044403 0.000000 -0.000000 0.000000 -0.384620 -11.949781 34.499720 4.151244 -2.734582 -4.036149 1.772580 -6.077978 4.052884 2.625414 4.581987 -5.035091 -0.845243 0.655068 6.289672 -24.767624 -3.967230 1.060846 -49.593279 -10.518256 3.448170 10.081106 -36.392093 6.319475 -5.156556 0.796981 0.116202 25.640384 -3.384995 -2.646282 51.241714 -9.513543 11.974801 -7.821207 33.954350 8.646248 -11.888442 -1.182842 7.806151 
1.976544 0.321378 0.846714 -88.343514 5.417087 69.036078 6.717557 7.472688 10.227710 -10.583368 -9.535839 58.953763 4.316189 18.490990 -48.619746 0.000000 -0.000000 0.000000 -7.360651 2.655905 -43.290647 -0.329883 -10.522840 73.972045 4.668827 -11.818267 -15.393670 0.000000 -0.000000 0.000000 -0.867404 -13.179039 34.862511 4.340353 -3.610789 -3.997018 1.862616 -6.498366 3.964646 2.348721 5.366460 -5.075458 -0.218491 1.344877 5.855300 -24.405042 -4.160206 0.852574 -48.783901 -12.181492 3.131584 10.972406 -36.890628 4.431986 -4.868749 0.130230 -0.388495 25.427043 -4.211129 -2.856285 51.427268 -10.757167 12.200923 -7.591410 32.581653 8.956840 -11.745763 -1.294354 8.042770 
1.963071 0.322998 0.846020 -87.916376 5.488098 69.131621 7.549505 7.626696 11.182658 -11.269841 -10.094821 59.058654 3.739361 17.377770 -48.556534 0.000000 -0.000000 0.000000 -7.578882 2.894536 -44.679122 -0.177969 -10.258903 69.793748 5.888988 -11.103827 -11.928346 0.000000 -0.000000 0.000000 -1.248038 -14.496399 34.901702 4.414859 -4.916092 -3.549140 1.869465 -6.768690 3.405732 1.805779 5.989757 -4.596038 0.376907 3.073299 4.719631 -24.217215 -4.269909 0.505120 -47.530557 -13.167981 2.229536 11.566001 -37.901903 3.066762 -4.493739 -0.227631 -0.541468 24.849828 -4.606294 -2.351603 52.019105 -11.712939 12.018950 -7.569278 30.930874 8.967551 -11.873621 -1.505232 8.404952 
1.947797 0.325027 0.844934 -87.444597 5.314535 69.375826 8.076526 7.620690 12.227707 -11.957840 -10.579858 58.846165 3.324741 16.711308 -48.425333 0.000000 -0.000000 0.000000 -7.931295 2.911585 -45.514997 0.226575 -9.771213 66.442985 8.083552 -9.996770 -6.529660 0.000000 -0.000000 0.000000 -1.845680 -14.343789 34.817670 4.709129 -4.934032 -3.685669 2.222342 -7.537151 3.825178 1.867142 6.036853 -5.044252 0.825543 2.478843 4.677915 -23.809909 -4.998586 0.622258 -47.231368 -16.083714 2.541897 12.974148 -37.612845 0.857368 -3.690454 -0.711370 -0.006161 24.848760 -6.088274 -3.592924 51.600561 -13.453732 12.683586 -7.386984 29.579545 8.728528 -11.727194 -1.840032 8.386561 
